<svg width="104" height="40" viewBox="0 0 104 40" fill="none" xmlns="http://www.w3.org/2000/svg">
<path d="M11.3053 4.04608C6.54515 6.25953 2.5784 8.13974 2.47527 8.21117C2.28486 8.34605 2.24519 8.65545 2.40387 8.79029C2.52287 8.89344 20.2066 16.343 20.3177 16.343C20.4288 16.343 37.9221 8.97278 38.1442 8.8379C38.3505 8.70302 38.3743 8.40158 38.1839 8.23497C38.1046 8.16355 34.1299 6.28334 29.346 4.05402C21.952 0.610878 20.5954 0 20.3018 0C20.0162 0.00793351 18.4613 0.706081 11.3053 4.04608Z" fill="#F6F930"/>
<path d="M0.126936 10.9165C0.015867 11.0276 0 12.0986 0 21.5077C0 31.845 0 31.9799 0.15867 32.2893C0.245938 32.4638 0.404608 32.6622 0.507744 32.7335C0.817147 32.9319 18.5009 39.9848 18.6992 39.9848C18.7945 39.9848 18.9134 39.9134 18.9611 39.834C19.088 39.5881 19.0721 18.7944 18.9452 18.6278C18.8341 18.4929 0.587079 10.7895 0.372874 10.7895C0.309406 10.7895 0.190404 10.8451 0.126936 10.9165Z" fill="#F6F930"/>
<path d="M30.9087 14.6763C25.8551 16.8104 21.6821 18.6034 21.6424 18.6669C21.5393 18.8335 21.5473 39.6509 21.6504 39.8493C21.698 39.9286 21.817 40 21.9122 40C22.1105 40 39.7943 32.9471 40.1037 32.7488C40.2068 32.6774 40.3655 32.4791 40.4527 32.3045C40.6114 31.9951 40.6114 31.8602 40.6114 21.5229C40.6114 12.1138 40.5955 11.0428 40.4845 10.9317C40.421 10.8603 40.302 10.8047 40.2306 10.8047C40.1592 10.8047 35.9624 12.5501 30.9087 14.6763Z" fill="#F6F930"/>
<path d="M45.32 32.7937V18.0259H50.9733C52.0405 18.0259 52.9274 18.1941 53.6341 18.5307C54.3457 18.8624 54.8767 19.3166 55.2275 19.8935C55.5834 20.4704 55.7616 21.1242 55.7616 21.8549C55.7616 22.4558 55.6458 22.9701 55.4153 23.398C55.1844 23.821 54.8742 24.1647 54.4848 24.4291C54.0955 24.6935 53.6605 24.8834 53.1798 24.9988V25.143C53.7038 25.1718 54.2061 25.3329 54.6869 25.6261C55.1722 25.9146 55.5692 26.3232 55.8768 26.852C56.1844 27.3807 56.3382 28.0201 56.3382 28.7701C56.3382 29.5344 56.153 30.2218 55.7829 30.8324C55.4128 31.438 54.8549 31.9164 54.1102 32.2673C53.3649 32.6182 52.4275 32.7937 51.2978 32.7937H45.32ZM47.9952 30.5583H50.8723C51.8434 30.5583 52.5428 30.3733 52.9707 30.0031C53.4034 29.6281 53.6197 29.1474 53.6197 28.5609C53.6197 28.1235 53.5115 27.7293 53.2952 27.3784C53.0789 27.0226 52.7712 26.7438 52.3722 26.5419C51.9732 26.3352 51.4973 26.2319 50.9445 26.2319H47.9952V30.5583ZM47.9952 24.3065H50.6416C51.1031 24.3065 51.5189 24.2224 51.8891 24.0542C52.2592 23.8811 52.5501 23.6384 52.7616 23.3259C52.9779 23.0086 53.0861 22.6336 53.0861 22.201C53.0861 21.6289 52.8842 21.1578 52.4804 20.7876C52.0814 20.4175 51.4877 20.2324 50.6993 20.2324H47.9952V24.3065ZM63.3813 33.01C62.2995 33.01 61.3624 32.7721 60.5689 32.2961C59.776 31.8202 59.1607 31.1544 58.7231 30.2987C58.2906 29.443 58.0744 28.4431 58.0744 27.299C58.0744 26.1549 58.2906 25.1526 58.7231 24.2921C59.1607 23.4316 59.776 22.7634 60.5689 22.2875C61.3624 21.8116 62.2995 21.5736 63.3813 21.5736C64.4631 21.5736 65.4002 21.8116 66.1936 22.2875C66.9866 22.7634 67.5998 23.4316 68.0323 24.2921C68.4699 25.1526 68.6887 26.1549 68.6887 27.299C68.6887 28.4431 68.4699 29.443 68.0323 30.2987C67.5998 31.1544 66.9866 31.8202 66.1936 32.2961C65.4002 32.7721 64.4631 33.01 63.3813 33.01ZM63.396 30.9189C63.9823 30.9189 64.4727 30.7578 64.8666 30.4357C65.2611 30.1089 65.554 29.6714 65.7464 29.1234C65.9439 28.5753 66.0423 27.9648 66.0423 27.2918C66.0423 26.614 65.9439 26.0011 65.7464 25.4531C65.554 24.9003 65.2611 24.4604 64.8666 24.1335C64.4727 23.8066 63.9823 23.6431 63.396 23.6431C62.7949 23.6431 62.2949 23.8066 61.8959 24.1335C61.502 24.4604 61.206 24.9003 61.0091 25.4531C60.8167 26.0011 60.7207 26.614 60.7207 27.2918C60.7207 27.9648 60.8167 28.5753 61.0091 29.1234C61.206 29.6714 61.502 30.1089 61.8959 30.4357C62.2949 30.7578 62.7949 30.9189 63.396 30.9189ZM72.6219 21.7178L74.8576 25.8064L77.1287 21.7178H79.8903L76.5521 27.2558L79.9482 32.7937H77.2008L74.8576 28.8061L72.5356 32.7937H69.7664L73.1412 27.2558L69.8532 21.7178H72.6219ZM86.3968 33.01C85.2861 33.01 84.3271 32.7793 83.5195 32.3178C82.7164 31.8515 82.0991 31.1929 81.6661 30.342C81.2335 29.4863 81.0173 28.4792 81.0173 27.3207C81.0173 26.1813 81.2335 25.1814 81.6661 24.321C82.1036 23.4557 82.7143 22.7827 83.4976 22.3019C84.2814 21.8164 85.2018 21.5736 86.2597 21.5736C86.942 21.5736 87.5862 21.6842 88.1918 21.9053C88.8025 22.1217 89.3411 22.4582 89.8071 22.9149C90.2782 23.3715 90.6483 23.9532 90.9178 24.6599C91.1869 25.3617 91.3214 26.1982 91.3214 27.1693V27.9697H82.2432V26.2102H88.8192C88.8147 25.7102 88.7065 25.2656 88.4949 24.8762C88.2832 24.482 87.9877 24.1719 87.608 23.946C87.2329 23.72 86.7953 23.6071 86.2958 23.6071C85.7622 23.6071 85.2932 23.7369 84.8896 23.9965C84.4855 24.2512 84.1708 24.5877 83.9449 25.006C83.7235 25.4194 83.6108 25.8737 83.6058 26.3689V27.9047C83.6058 28.5489 83.7235 29.1018 83.9591 29.5633C84.1946 30.0199 84.5241 30.3709 84.947 30.616C85.3703 30.8564 85.8653 30.9766 86.4328 30.9766C86.8125 30.9766 87.1562 30.9237 87.4638 30.8179C87.7715 30.7074 88.038 30.5463 88.2639 30.3348C88.4903 30.1233 88.6609 29.8613 88.7761 29.5488L91.2133 29.8228C91.0595 30.467 90.7661 31.0294 90.3335 31.5102C89.9056 31.9861 89.3579 32.3563 88.6898 32.6206C88.0212 32.8802 87.2572 33.01 86.3968 33.01ZM97.64 32.9884C96.7699 32.9884 95.9912 32.7649 95.3039 32.3178C94.6165 31.8707 94.0728 31.2217 93.6738 30.3709C93.2748 29.52 93.0753 28.4864 93.0753 27.2702C93.0753 26.0396 93.2774 25.0012 93.6814 24.1551C94.0901 23.3042 94.6404 22.6625 95.3323 22.2298C96.0247 21.7924 96.7963 21.5736 97.6472 21.5736C98.2964 21.5736 98.83 21.6842 99.2483 21.9053C99.666 22.1217 99.998 22.3837 100.243 22.6913C100.488 22.9942 100.678 23.2802 100.813 23.5494H100.921V18.0259H103.538V32.7937H100.971V31.0487H100.813C100.678 31.3179 100.483 31.6039 100.229 31.9067C99.9737 32.2048 99.6376 32.4596 99.2193 32.6711C98.801 32.8826 98.2746 32.9884 97.64 32.9884ZM98.3685 30.8468C98.9213 30.8468 99.3924 30.6977 99.7818 30.3997C100.171 30.0968 100.467 29.6762 100.669 29.1378C100.871 28.5994 100.971 27.9721 100.971 27.2558C100.971 26.5395 100.871 25.917 100.669 25.3881C100.472 24.8594 100.178 24.4483 99.7889 24.1551C99.4041 23.8619 98.931 23.7153 98.3685 23.7153C97.7868 23.7153 97.3009 23.8667 96.9116 24.1696C96.5222 24.4724 96.2293 24.8906 96.0318 25.4242C95.8349 25.9578 95.7364 26.5683 95.7364 27.2558C95.7364 27.948 95.8349 28.5657 96.0318 29.109C96.2339 29.6474 96.5293 30.0728 96.9187 30.3853C97.3131 30.6929 97.7964 30.8468 98.3685 30.8468Z" fill="black"/>
</svg>
