<svg width="49" height="10" viewBox="0 0 49 10" fill="none" xmlns="http://www.w3.org/2000/svg">
<path d="M3.14724 9.10362C3.07177 9.19749 3.02753 9.31748 3.02753 9.44711C3.02753 9.75178 3.27439 9.99995 3.58198 9.99995H7.59737L5.02472 6.66571L3.14724 9.10362Z" fill="url(#paint0_linear_150_108)"/>
<path d="M3.03469 3.33277C2.65732 3.33277 2.32346 3.51174 2.11178 3.78969L0.0858385 6.42117C0.0327008 6.4892 0 6.57299 0 6.66569C0 6.75708 0.029051 6.8397 0.0821887 6.90875L2.1093 9.53819L2.12273 9.55658C2.33105 9.82081 2.6509 9.99264 3.01264 9.99994H3.02651H3.26578H3.58197C3.27439 9.99994 3.02753 9.75176 3.02753 9.4471C3.02753 9.31746 3.07177 9.19747 3.14724 9.1036L5.02472 6.66569L7.59737 3.33277H3.03469Z" fill="url(#paint1_linear_150_108)"/>
<path d="M5.85682 -5.24521e-06L8.43064 3.33278L10.3094 0.898522C10.382 0.802173 10.4283 0.683488 10.4283 0.554147C10.4283 0.248022 10.1798 -5.24521e-06 9.87353 -5.24521e-06H5.85682Z" fill="url(#paint2_linear_150_108)"/>
<path d="M10.1909 7.15256e-06H9.87353C10.1798 7.15256e-06 10.4283 0.248035 10.4283 0.55416C10.4283 0.683501 10.382 0.802186 10.3094 0.898534L8.43064 3.33279L5.85682 6.66572H10.4192C10.7957 6.66572 11.1316 6.48777 11.3449 6.21142L13.3692 3.5798C13.4227 3.51177 13.4548 3.42666 13.4548 3.33396C13.4548 3.24243 13.4237 3.15995 13.3739 3.09455L11.3472 0.462921L11.3341 0.442918C11.1242 0.18015 10.803 0.00847387 10.4439 0.00117445C10.4373 6.67572e-06 10.4328 7.15256e-06 10.4283 7.15256e-06H10.1909Z" fill="url(#paint3_linear_150_108)"/>
<path d="M10.4511 0.898569C10.5267 0.802074 10.5703 0.683537 10.5703 0.55405C10.5703 0.247925 10.3233 4.673e-05 10.0169 4.673e-05H9.87357C10.1798 4.673e-05 10.4283 0.247925 10.4283 0.55405C10.4283 0.683537 10.382 0.802074 10.3095 0.898569L8.43068 3.33283L5.85686 6.66576L10.4511 0.898569Z" fill="#00C0F3"/>
<path d="M3.00282 9.10367C2.92997 9.19753 2.88414 9.31739 2.88414 9.44716C2.88414 9.75168 3.13318 10 3.43741 10H3.58193C3.27435 10 3.02749 9.75168 3.02749 9.44716C3.02749 9.31739 3.07187 9.19753 3.1472 9.10367L5.02468 6.66576L7.59733 3.33283L3.00282 9.10367Z" fill="#FFD400"/>
<path d="M47.6361 6.89412C47.4468 6.81018 47.2072 6.75325 46.9458 6.68931C46.5595 6.59296 46.2014 6.57179 46.068 6.36435C45.9439 6.1718 46.0124 5.94597 46.1778 5.83122C46.5578 5.57094 47.0738 5.67458 47.3594 5.80684C47.4072 5.82772 47.6193 5.94976 47.6193 5.94976C47.6478 5.96801 47.6831 5.9794 47.7211 5.9794C47.789 5.9794 47.8455 5.94728 47.8814 5.89794C47.8842 5.89181 48.4223 5.19299 48.4223 5.19299L48.3316 5.12131C48.2793 5.08306 48.2049 5.03007 48.1258 4.98438C47.964 4.89314 47.4728 4.61023 46.7591 4.61023H46.6963C45.1311 4.64745 44.9149 5.75327 44.9149 6.14348C44.9149 6.73632 45.2197 7.162 45.6791 7.42608C46.0455 7.63849 46.7408 7.75294 47.0953 7.86053C47.2792 7.91585 47.4145 8.04344 47.4653 8.16797C47.489 8.22213 47.5015 8.28037 47.5033 8.34198C47.5099 8.54445 47.4001 8.78022 47.0961 8.8754C46.7591 8.97759 46.2274 8.93481 45.7458 8.55672C45.7321 8.54562 45.6779 8.50358 45.6597 8.49657C45.636 8.48752 45.6135 8.48416 45.5861 8.48416C45.5173 8.48416 45.4635 8.52008 45.4251 8.57278C45.4173 8.5827 44.8893 9.26196 44.8893 9.26196C44.8893 9.26196 45.0755 9.41582 45.1371 9.46283C45.4407 9.69129 45.9852 9.9999 46.7004 9.9999H46.7277C48.2317 9.99479 48.5898 8.92722 48.5898 8.33833C48.5898 7.7398 48.2234 7.1582 47.6361 6.89412Z" fill="#00416B"/>
<path d="M30.8265 4.69453C30.5684 4.69818 30.3526 4.7303 30.1351 4.79439C29.7887 4.90285 29.524 5.09307 29.3221 5.35832C28.9888 5.80035 28.9923 6.32487 28.9923 6.32487V9.98888H29.9722C30.0341 9.98888 30.0861 9.93706 30.0861 9.87502V6.39173C30.0861 6.32151 30.0966 6.08312 30.232 5.95831C30.3401 5.86094 30.4858 5.81393 30.6284 5.79291C30.7871 5.76955 30.9345 5.78064 31.0081 5.79057C31.0081 5.79057 31.023 5.79291 31.0329 5.79291C31.1041 5.79291 31.1657 5.7532 31.2006 5.69656L31.7018 4.8338C31.4227 4.73643 31.1438 4.69059 30.8265 4.69453Z" fill="#00416B"/>
<path d="M27.9299 4.69453C27.6715 4.69818 27.4531 4.7303 27.2394 4.79439C26.8901 4.90285 26.6275 5.09307 26.4242 5.35832C26.0899 5.80035 26.0962 6.32487 26.0962 6.32487V9.98888H27.0752C27.1359 9.98888 27.188 9.93706 27.188 9.87502V6.39173C27.188 6.32151 27.1969 6.08312 27.3346 5.95831C27.442 5.86094 27.5889 5.81393 27.7318 5.79291C27.8911 5.76955 28.0355 5.78064 28.1095 5.79057C28.1095 5.79057 28.127 5.79291 28.1343 5.79291C28.2063 5.79291 28.2689 5.7532 28.3035 5.69656L28.8046 4.8338C28.5244 4.73643 28.2455 4.69059 27.9299 4.69453Z" fill="#00416B"/>
<path d="M19.307 8.63207C19.2699 8.58404 19.2121 8.55324 19.1451 8.55324C19.1068 8.55324 19.0712 8.56302 19.0429 8.58141L19.0378 8.58273C18.7048 8.78389 18.3133 8.89761 17.8947 8.89761C16.6664 8.89761 15.6667 7.89763 15.6667 6.66831C15.6667 5.44001 16.6664 4.43886 17.8947 4.43886C18.3133 4.43886 18.7033 4.55507 19.0366 4.75229C19.0677 4.77463 19.1059 4.78441 19.1451 4.78441C19.2094 4.78441 19.2687 4.75229 19.3058 4.70806L19.8621 3.9834C19.3106 3.57728 18.6312 3.33889 17.8947 3.33889C16.0594 3.33889 14.5656 4.83273 14.5656 6.66831C14.5656 8.50506 16.0594 9.99992 17.8947 9.99992C18.6312 9.99992 19.3106 9.76037 19.8649 9.35556L19.307 8.63207Z" fill="#00416B"/>
<path d="M34.236 5.67066C34.9593 5.67066 35.5707 6.14 35.7876 6.79064H32.687C32.9027 6.14 33.5166 5.67066 34.236 5.67066ZM34.236 4.61798C32.7553 4.61798 31.5487 5.82248 31.5487 7.30508C31.5487 8.77294 32.7559 9.97729 34.2386 9.99379H34.3176C34.904 9.99379 35.3707 9.91467 35.9908 9.51219L36.0913 9.44708C36.0913 9.44708 35.5402 8.73323 35.5346 8.72447C35.498 8.67659 35.4412 8.64827 35.377 8.64827C35.3402 8.64827 35.3063 8.65688 35.2781 8.67382C35.1393 8.74695 34.7074 8.94067 34.236 8.94067C33.5274 8.94213 32.9236 8.48637 32.6966 7.85471H36.3764L36.8012 7.85193C36.8648 7.85193 36.9167 7.80157 36.9167 7.73982L36.9226 7.42479C36.9241 7.38523 36.927 7.34494 36.927 7.30508C36.927 5.82248 35.72 4.61798 34.236 4.61798Z" fill="#00416B"/>
<path d="M37.6666 9.99995C37.6041 9.99995 37.5528 9.95061 37.5523 9.88988V4.90414C37.5528 4.84487 37.6013 4.79436 37.6614 4.79203H38.5305C38.5935 4.79203 38.6454 4.84224 38.6454 4.9056V9.8874C38.6454 9.9493 38.5935 9.99995 38.5305 9.99995H37.6666Z" fill="#00416B"/>
<path d="M22.7624 5.65597C21.8688 5.65597 21.1404 6.38428 21.1404 7.27769C21.1404 8.17403 21.8688 8.90029 22.7624 8.90029C23.6586 8.90029 24.3861 8.17403 24.3861 7.27769C24.3861 6.38428 23.6586 5.65597 22.7624 5.65597ZM22.7624 9.99998C21.2621 9.99998 20.0414 8.77898 20.0414 7.27769C20.0414 5.77802 21.2621 4.55848 22.7624 4.55848C24.2638 4.55848 25.4836 5.77802 25.4836 7.27769C25.4836 8.77898 24.2638 9.99998 22.7624 9.99998Z" fill="#00416B"/>
<path d="M41.8818 5.69575C40.9957 5.69575 40.276 6.41515 40.276 7.30024C40.276 8.18519 40.9957 8.9062 41.8818 8.9062C42.767 8.9062 43.487 8.18519 43.487 7.30024C43.487 6.41515 42.767 5.69575 41.8818 5.69575ZM41.8818 9.9926C40.3972 9.9926 39.19 8.78386 39.19 7.30024C39.19 5.81502 40.3972 4.60803 41.8818 4.60803C43.3664 4.60803 44.5747 5.81502 44.5747 7.30024C44.5747 8.78386 43.3664 9.9926 41.8818 9.9926Z" fill="#00416B"/>
<defs>
<linearGradient id="paint0_linear_150_108" x1="7.66342" y1="8.33284" x2="3.00356" y2="8.33284" gradientUnits="userSpaceOnUse">
<stop stop-color="#D09910"/>
<stop offset="1" stop-color="#A65718"/>
</linearGradient>
<linearGradient id="paint1_linear_150_108" x1="7.63249" y1="3.13176" x2="1.02448" y2="8.29451" gradientUnits="userSpaceOnUse">
<stop stop-color="#FFDD00"/>
<stop offset="0.899994" stop-color="#D09910"/>
<stop offset="1" stop-color="#FFDD00"/>
</linearGradient>
<linearGradient id="paint2_linear_150_108" x1="5.79067" y1="1.66639" x2="10.4521" y2="1.66639" gradientUnits="userSpaceOnUse">
<stop stop-color="#00416B"/>
<stop offset="1" stop-color="#002447"/>
</linearGradient>
<linearGradient id="paint3_linear_150_108" x1="5.82274" y1="6.86817" x2="12.4319" y2="1.7045" gradientUnits="userSpaceOnUse">
<stop stop-color="#00416B"/>
<stop offset="0.899994" stop-color="#00B1EB"/>
<stop offset="1" stop-color="#0083CA"/>
</linearGradient>
</defs>
</svg>
